<?xml version="1.0" encoding="utf-8"?>
<!-- Generator: Adobe Illustrator 25.4.1, SVG Export Plug-In . SVG Version: 6.00 Build 0)  -->
<svg version="1.1" id="a" xmlns="http://www.w3.org/2000/svg" xmlns:xlink="http://www.w3.org/1999/xlink" x="0px" y="0px"
	 viewBox="0 0 989 364" style="enable-background:new 0 0 989 364;" xml:space="preserve">
<style type="text/css">
	.st0{fill:#FFFFFF;}
</style>
<path class="st0" d="M342.5,237.5v17.1h-23.2c1.7-0.7,3.4-1.6,5-2.6C331.2,248,337.3,243.2,342.5,237.5L342.5,237.5z"/>
<path class="st0" d="M335.1,139.6c-4.1-2.3-10.2-3.4-18.2-3.4c-9,0-15.4,2.2-19.1,6.7c-2.7,3.3-4.5,7.8-5.3,13.4h-36.7
	c0.8-12.7,4.4-23.2,10.7-31.4c5.8-7.4,14.7-11.8,24.5-15.8h-39.7V50.2h-38.6v77.3c-4.3-6.8-9.8-12.2-16.7-16.1
	c-6.9-3.9-14.7-5.8-23.5-5.8c-19.1,0-34.4,7.1-45.9,21.4c-11.5,14.2-17.2,33.8-17.2,58.6c0,21.5,5.8,39.2,17.4,52.9
	c11.6,13.8,25.9,20.6,42.9,20.6c10.3,0,18.9-2,25.9-5.9c6.9-3.9,13.1-10.2,18.6-18.8v20.2h60c-3.8-1.7-7.2-4-10.4-6.8
	c-8.6-7.5-12.9-18.2-12.9-32c0-17.9,6.9-30.8,20.7-38.8c7.6-4.4,18.7-7.5,33.4-9.4l13-1.6c7-0.9,12-2,15.1-3.3
	c5.4-2.3,8.1-5.9,8.1-10.8C341.3,145.9,339.2,141.8,335.1,139.6L335.1,139.6z M205.4,215c-5.6,8-13.8,12-24.6,12s-18.8-4-24-12.1
	c-5.3-8-8-18.7-8-32.2c0-12.4,2.6-22.9,7.8-31.3c5.2-8.4,13.4-12.6,24.5-12.6c7.3,0,13.7,2.3,19.2,7c9,7.6,13.5,20.4,13.5,38.2
	C213.8,196.7,211,207,205.4,215z"/>
<path class="st0" d="M330.5,224.3c-6.9,4.8-14.4,7.2-22.6,7.2c-5.2,0-9.5-1.5-13.1-4.4c-3.6-2.9-5.5-7.5-5.5-14
	c0-7.3,2.9-12.7,8.8-16.1c3.5-2,9.2-3.8,17.2-5.2l8.5-1.6c4.3-0.8,7.6-1.7,10.1-2.6c2.5-0.9,4.9-2.2,7.3-3.7V198
	C340.9,210.7,337.4,219.5,330.5,224.3L330.5,224.3z"/>
<path class="st0" d="M476.9,49.9h38v204.7h-38L476.9,49.9L476.9,49.9z"/>
<path class="st0" d="M574.5,109.1v145.5h-38.6V109.1H574.5z"/>
<path class="st0" d="M663.1,137.2c-12.9,0-21.8,5.5-26.6,16.4c-2.5,5.8-3.7,13.2-3.7,22.2v78.8h-37.9V109.3h36.7v21.2
	c4.9-7.5,9.5-12.9,13.9-16.2c7.8-5.9,17.8-8.8,29.8-8.8c15,0,27.3,3.9,36.9,11.8c9.6,7.9,14.3,20.9,14.3,39.2v98h-39v-88.5
	c0-7.6-1-13.5-3.1-17.6C680.7,141,673.6,137.2,663.1,137.2L663.1,137.2z"/>
<path class="st0" d="M789.1,280.1c4.1,3.5,11,5.2,20.7,5.2c13.7,0,22.9-4.6,27.5-13.8c3-5.9,4.5-15.8,4.5-29.6v-9.4
	c-3.7,6.2-7.6,10.9-11.8,14c-7.6,5.8-17.4,8.7-29.5,8.7c-18.7,0-33.6-6.6-44.8-19.7s-16.8-30.9-16.8-53.3s5.4-39.8,16.2-54.5
	s26-22.1,45.8-22.1c7.3,0,13.7,1.1,19.1,3.3c9.3,3.8,16.7,10.9,22.4,21.1v-21h37v138c0,18.8-3.2,32.9-9.5,42.5
	c-10.9,16.4-31.7,24.6-62.5,24.6c-18.6,0-33.8-3.6-45.5-11c-11.8-7.3-18.2-18.2-19.5-32.7h41.4C785,274.9,786.7,278.1,789.1,280.1
	L789.1,280.1z M782.7,204.9c5.2,12.3,14.4,18.4,27.8,18.4c8.9,0,16.4-3.4,22.6-10.1s9.2-17.4,9.2-32.1c0-13.8-2.9-24.3-8.7-31.5
	s-13.6-10.8-23.4-10.8c-13.3,0-22.6,6.3-27.6,18.8c-2.7,6.7-4,14.9-4,24.7C778.5,190.8,779.9,198.3,782.7,204.9L782.7,204.9z"/>
<polygon class="st0" points="535,49.9 571,87.4 551.9,89.4 535.6,102.5 "/>
<path class="st0" d="M464.4,105.9v39c-2.4-0.3-4.5-0.4-6.4-0.6c-1.9-0.1-3.4-0.1-4.5-0.1c-15.3,0-25.6,5-30.8,14.9
	c-2.9,5.6-4.4,14.2-4.4,25.9v69.5l-17.3,0c-5.2,0-10-1.9-13.7-4.9c-0.7-0.6-1.4-1.2-2-1.9c-3.1-3.3-5.1-7.6-5.6-12.4
	c0,0,0-0.6-0.1-1c0-0.6-0.2-12.6-0.2-16.8v-66.8c0-17.5-6.2-29.4-18.6-35.8c-4.9-2.5-10.1-4.5-15.6-6h71v25.4
	c5.9-9.7,11-16.3,15.4-19.9c7.1-5.9,16.4-8.9,27.8-8.9c0.7,0,1.3,0,1.8,0.1C461.6,105.7,462.6,105.8,464.4,105.9L464.4,105.9z"/>
</svg>
