<?xml version="1.0" encoding="UTF-8"?><svg id="a" xmlns="http://www.w3.org/2000/svg" viewBox="0 0 989 364"><defs><style>.b,.c{fill:#5d2684;}.c{font-family:Helvetica-Light, Helvetica;font-size:53.04px;letter-spacing:-.06em;}</style></defs><g><path class="b" d="M342.54,230.65v17.09h-23.19c1.71-.73,3.38-1.58,5.03-2.56,6.86-3.99,12.89-8.84,18.16-14.54Z"/><path class="b" d="M335.13,132.73c-4.15-2.26-10.22-3.39-18.24-3.39-8.98,0-15.35,2.22-19.09,6.66-2.67,3.3-4.45,7.75-5.33,13.36h-36.72c.79-12.73,4.36-23.19,10.68-31.37,5.79-7.38,14.7-11.81,24.55-15.76h-39.72V43.32h-38.58V120.66c-4.28-6.85-9.84-12.21-16.7-16.09-6.85-3.87-14.68-5.81-23.48-5.81-19.14,0-34.42,7.12-45.86,21.37-11.46,14.22-17.16,33.77-17.16,58.6,0,21.54,5.81,39.18,17.42,52.93,11.62,13.76,25.91,20.62,42.92,20.62,10.33,0,18.95-1.96,25.91-5.86,6.94-3.92,13.12-10.19,18.56-18.83v20.16h60.05c-3.76-1.74-7.22-3.99-10.37-6.75-8.59-7.54-12.88-18.18-12.88-31.98,0-17.88,6.9-30.83,20.68-38.84,7.57-4.36,18.7-7.47,33.38-9.35l12.95-1.61c7.02-.88,12.05-1.99,15.08-3.34,5.42-2.3,8.15-5.92,8.15-10.8,0-5.97-2.08-10.09-6.2-12.36Zm-129.78,75.49c-5.6,8-13.8,12.01-24.57,12.01s-18.77-4.04-24.03-12.13c-5.33-8-8-18.74-8-32.17,0-12.45,2.6-22.9,7.8-31.32,5.21-8.4,13.37-12.61,24.5-12.61,7.29,0,13.7,2.32,19.23,6.96,8.98,7.65,13.47,20.38,13.47,38.16,0,12.73-2.79,23.09-8.4,31.1Z"/><path class="b" d="M330.45,217.44c-6.88,4.81-14.43,7.21-22.61,7.21-5.16,0-9.53-1.47-13.09-4.41-3.65-2.85-5.47-7.51-5.47-14.01,0-7.29,2.93-12.68,8.81-16.15,3.46-2.04,9.2-3.78,17.21-5.21l8.55-1.6c4.26-.8,7.62-1.67,10.07-2.59,2.45-.94,4.87-2.16,7.28-3.68v14.16c-.27,12.73-3.85,21.49-10.75,26.29Z"/><path class="b" d="M476.87,43.05h38.04V247.75h-38.04V43.05Z"/><path class="b" d="M574.47,102.23V247.74h-38.58V102.23h38.58Z"/><path class="b" d="M663.12,130.4c-12.91,0-21.76,5.47-26.56,16.42-2.49,5.78-3.74,13.17-3.74,22.16v78.76h-37.91V102.5h36.71v21.23c4.89-7.48,9.52-12.86,13.88-16.15,7.83-5.87,17.75-8.81,29.77-8.81,15.04,0,27.34,3.94,36.91,11.81,9.57,7.88,14.35,20.94,14.35,39.18v97.99h-38.98v-88.51c0-7.65-1.02-13.52-3.07-17.62-3.74-7.48-10.86-11.21-21.36-11.21Z"/><path class="b" d="M789.12,273.24c4.09,3.47,10.99,5.21,20.69,5.21,13.7,0,22.87-4.58,27.5-13.75,3.03-5.87,4.54-15.75,4.54-29.63v-9.35c-3.65,6.23-7.57,10.9-11.75,14.02-7.56,5.78-17.4,8.68-29.5,8.68-18.69,0-33.62-6.56-44.79-19.69-11.17-13.13-16.75-30.9-16.75-53.33s5.38-39.8,16.15-54.53c10.77-14.73,26.03-22.09,45.79-22.09,7.3,0,13.66,1.11,19.09,3.34,9.26,3.83,16.73,10.86,22.43,21.09v-20.96h36.98V240.27c0,18.78-3.16,32.93-9.48,42.45-10.86,16.37-31.68,24.56-62.48,24.56-18.6,0-33.78-3.65-45.52-10.95-11.75-7.3-18.25-18.2-19.49-32.71h41.38c1.07,4.45,2.8,7.65,5.21,9.61Zm-6.41-75.16c5.16,12.28,14.42,18.42,27.77,18.42,8.9,0,16.42-3.36,22.56-10.08,6.14-6.72,9.21-17.42,9.21-32.11,0-13.79-2.91-24.29-8.74-31.5-5.83-7.21-13.64-10.81-23.43-10.81-13.35,0-22.56,6.27-27.63,18.82-2.67,6.67-4,14.91-4,24.7,0,8.45,1.42,15.97,4.27,22.56Z"/><polygon class="b" points="535.03 43.05 571.02 80.59 551.9 82.61 535.57 95.7 535.03 43.05"/><path class="b" d="M464.35,99.02v38.99c-2.38-.27-4.53-.44-6.41-.55-1.85-.09-3.37-.12-4.54-.12-15.3,0-25.58,4.97-30.84,14.95-2.93,5.6-4.4,14.25-4.4,25.9v69.54l-17.3,.02c-5.21,0-9.98-1.86-13.7-4.95-.69-.58-1.36-1.21-1.98-1.88-3.09-3.31-5.14-7.62-5.63-12.38,0-.02-.05-.65-.06-.97-.02-.56-.25-12.6-.25-16.82v-66.75c0-17.54-6.19-29.44-18.56-35.77-4.9-2.52-10.08-4.51-15.56-6.01h71.03v25.37c5.88-9.69,10.99-16.34,15.35-19.9,7.12-5.95,16.37-8.92,27.78-8.92,.72,0,1.31,.02,1.78,.05,.5,.05,1.59,.12,3.27,.2Z"/></g><text class="c" transform="translate(210.15 302.12) rotate(-.11)"><tspan x="0" y="0">linjeforeningen for design</tspan></text></svg>